<svg width="47" height="48" viewBox="0 0 47 48" fill="none" xmlns="http://www.w3.org/2000/svg">
<path d="M23.5 0.666687C10.8432 0.666687 0.583374 11.113 0.583374 24C0.583374 36.887 10.8432 47.3334 23.5 47.3334C36.1569 47.3334 46.4167 36.887 46.4167 24C46.4167 11.113 36.1569 0.666687 23.5 0.666687ZM30.375 26.3334H25.7917V31C25.7917 32.288 24.765 33.3334 23.5 33.3334C22.235 33.3334 21.2084 32.288 21.2084 31V26.3334H16.625C15.36 26.3334 14.3334 25.288 14.3334 24C14.3334 22.712 15.36 21.6667 16.625 21.6667H21.2084V17C21.2084 15.712 22.235 14.6667 23.5 14.6667C24.765 14.6667 25.7917 15.712 25.7917 17V21.6667H30.375C31.64 21.6667 32.6667 22.712 32.6667 24C32.6667 25.288 31.64 26.3334 30.375 26.3334Z" fill="#424242"/>
</svg>
