<svg width="45" height="45" viewBox="0 0 45 45" fill="none" xmlns="http://www.w3.org/2000/svg">
<rect width="45" height="45" rx="22.5" fill="white"/>
<path d="M34.4191 23.706H30.5511C30.4127 25.9194 29.4358 27.9968 27.8195 29.5152C26.2031 31.0336 24.0688 31.8788 21.8511 31.8788C19.6334 31.8788 17.4991 31.0336 15.8827 29.5152C14.2664 27.9968 13.2895 25.9194 13.1511 23.706V23.706C13.1511 23.1936 12.9476 22.7022 12.5852 22.3399C12.2229 21.9775 11.7315 21.774 11.2191 21.774C10.7067 21.774 10.2153 21.9775 9.85298 22.3399C9.49066 22.7022 9.28711 23.1936 9.28711 23.706V23.727C9.28711 23.74 9.28711 23.752 9.28711 23.765C9.43593 27.003 10.8289 30.0586 13.1755 32.2947C15.5222 34.5309 18.6414 35.7749 21.8829 35.7674C25.1243 35.7599 28.2378 34.5015 30.5741 32.2546C32.9104 30.0077 34.2892 26.9457 34.4231 23.707" fill="#231F20"/>
<path d="M32.07 25.6C33.5138 25.6 34.9252 25.1719 36.1257 24.3697C37.3262 23.5676 38.2618 22.4275 38.8143 21.0936C39.3669 19.7597 39.5114 18.2919 39.2298 16.8758C38.9481 15.4598 38.2528 14.159 37.2319 13.1381C36.211 12.1172 34.9102 11.4219 33.4942 11.1403C32.0781 10.8586 30.6103 11.0032 29.2764 11.5557C27.9425 12.1082 26.8024 13.0439 26.0003 14.2443C25.1982 15.4448 24.77 16.8562 24.77 18.3C24.77 20.2361 25.5391 22.0929 26.9081 23.4619C28.2772 24.8309 30.1339 25.6 32.07 25.6" fill="#231F20"/>
<path d="M38.3869 18.299C38.3869 19.5484 38.0164 20.7697 37.3223 21.8085C36.6282 22.8474 35.6416 23.657 34.4873 24.1351C33.3331 24.6133 32.0629 24.7384 30.8375 24.4946C29.6122 24.2509 28.4866 23.6492 27.6031 22.7658C26.7197 21.8823 26.1181 20.7568 25.8743 19.5314C25.6306 18.306 25.7557 17.0359 26.2338 15.8816C26.7119 14.7273 27.5216 13.7407 28.5604 13.0466C29.5992 12.3525 30.8205 11.982 32.0699 11.982C33.7453 11.982 35.3521 12.6475 36.5367 13.8322C37.7214 15.0169 38.3869 16.6236 38.3869 18.299Z" fill="#EBA243"/>
<path d="M37.745 18.299C37.745 19.4212 37.4122 20.5182 36.7887 21.4513C36.1653 22.3844 35.2791 23.1116 34.2423 23.5411C33.2055 23.9705 32.0647 24.0829 30.964 23.864C29.8634 23.645 28.8524 23.1046 28.0588 22.3111C27.2653 21.5176 26.7249 20.5066 26.506 19.4059C26.2871 18.3053 26.3994 17.1644 26.8289 16.1277C27.2583 15.0909 27.9856 14.2047 28.9187 13.5812C29.8518 12.9578 30.9488 12.625 32.071 12.625C33.5758 12.625 35.019 13.2228 36.0831 14.2869C37.1472 15.351 37.745 16.7942 37.745 18.299" fill="#EEBB45"/>
<path d="M36.8951 18.299C36.8953 19.2534 36.6125 20.1864 36.0824 20.98C35.5523 21.7737 34.7987 22.3922 33.917 22.7576C33.0353 23.1229 32.0651 23.2185 31.1291 23.0324C30.193 22.8462 29.3332 22.3867 28.6583 21.7118C27.9835 21.037 27.5239 20.1772 27.3378 19.2411C27.1516 18.3051 27.2473 17.3348 27.6126 16.4531C27.9779 15.5714 28.5965 14.8179 29.3901 14.2878C30.1837 13.7577 31.1167 13.4748 32.0711 13.475C33.3505 13.475 34.5775 13.9833 35.4822 14.888C36.3869 15.7926 36.8951 17.0196 36.8951 18.299Z" fill="#ECAC44"/>
<path d="M32.4981 22.269C31.3649 22.2463 30.2841 21.7871 29.481 20.9872C28.678 20.1872 28.2146 19.1082 28.1876 17.975C28.1605 16.8418 28.5718 15.7419 29.3357 14.9045C30.0996 14.0671 31.1572 13.5569 32.2881 13.48C32.2161 13.48 32.1431 13.475 32.0701 13.475C31.1158 13.475 30.183 13.758 29.3895 14.2882C28.596 14.8184 27.9776 15.5719 27.6124 16.4536C27.2472 17.3352 27.1517 18.3054 27.3378 19.2413C27.524 20.1773 27.9835 21.037 28.6583 21.7118C29.3331 22.3866 30.1928 22.8462 31.1288 23.0323C32.0648 23.2185 33.0349 23.1229 33.9166 22.7578C34.7982 22.3926 35.5518 21.7741 36.082 20.9807C36.6121 20.1872 36.8951 19.2543 36.8951 18.3C36.8951 18.227 36.8951 18.154 36.8901 18.083C36.8354 19.2113 36.3489 20.2753 35.5313 21.0547C34.7137 21.8342 33.6277 22.2693 32.4981 22.27" fill="#E99442"/>
<path d="M36.2839 15.006C36.5905 15.3418 36.845 15.7217 37.0389 16.133C37.1527 16.3902 37.2479 16.6552 37.3239 16.926C37.3687 17.2199 37.4486 17.5073 37.5619 17.782C37.6709 17.97 37.8399 18.082 37.9239 17.85C37.9757 17.5689 37.9557 17.2794 37.8659 17.008C37.5699 15.779 36.9044 14.6702 35.9589 13.831C35.8589 13.741 35.5129 13.486 35.3529 13.509C34.8079 13.587 35.4429 14.122 35.6079 14.294C35.8359 14.532 36.0679 14.762 36.2829 15.007" fill="#F2D847"/>
<path d="M37.4971 19.166C37.5831 19.378 37.7451 19.292 37.8331 19.127C37.9099 18.9673 37.9394 18.789 37.9181 18.613C37.8831 18.418 37.6941 18.362 37.5861 18.525C37.4786 18.7205 37.4469 18.9487 37.4971 19.166" fill="#F2D847"/>
<path d="M32.5559 15.083C32.5719 15.483 32.9189 15.646 33.2209 15.824C33.8696 16.1249 34.3757 16.6665 34.6319 17.334C34.7839 17.709 34.9319 18.094 35.4319 17.998C35.8809 17.911 35.9419 17.562 35.9619 17.159C35.9679 16.6784 35.8474 16.2045 35.6126 15.7851C35.3777 15.3656 35.0368 15.0152 34.6239 14.769C34.2372 14.5405 33.7898 14.4358 33.3419 14.469C33.0769 14.499 32.5419 14.732 32.5579 15.084" fill="#F0C846"/>
<path d="M34.1721 15.966L33.9521 15.992C33.8146 16.0257 33.692 16.1034 33.6029 16.2134C33.5139 16.3234 33.4634 16.4596 33.4591 16.601C33.4501 16.674 33.4411 16.749 33.4411 16.749C33.4411 16.749 33.4321 16.667 33.4221 16.592C33.4163 16.4522 33.3652 16.318 33.2764 16.2098C33.1877 16.1016 33.0661 16.0251 32.9301 15.992L32.7101 15.966C32.6821 15.966 32.6841 15.966 32.6841 15.966C32.6841 15.966 32.6841 15.966 32.7101 15.966L32.9301 15.94C33.0576 15.9097 33.1725 15.8406 33.2592 15.7423C33.3458 15.644 33.3999 15.5213 33.4141 15.391C33.4301 15.304 33.4411 15.183 33.4411 15.183C33.4411 15.183 33.4511 15.294 33.4661 15.383C33.4783 15.5156 33.5318 15.641 33.619 15.7416C33.7061 15.8423 33.8226 15.913 33.9521 15.944L34.1721 15.97" fill="white"/>
<path d="M34.8051 17.073L34.7051 17.085C34.6446 17.0999 34.5906 17.1341 34.5514 17.1825C34.5122 17.2309 34.49 17.2908 34.4881 17.353C34.4881 17.385 34.4801 17.418 34.4801 17.418C34.4801 17.418 34.4801 17.382 34.4721 17.349C34.4696 17.2874 34.4471 17.2282 34.4079 17.1806C34.3687 17.1329 34.3151 17.0994 34.2551 17.085L34.1551 17.073C34.1431 17.073 34.1441 17.073 34.1441 17.073C34.1441 17.073 34.1441 17.073 34.1551 17.073L34.2551 17.062C34.3112 17.0486 34.3618 17.0181 34.3999 16.9748C34.438 16.9314 34.4618 16.8774 34.4681 16.82C34.4751 16.781 34.4801 16.728 34.4801 16.728C34.4801 16.728 34.4801 16.777 34.4911 16.814C34.4964 16.8724 34.5199 16.9277 34.5583 16.972C34.5967 17.0163 34.648 17.0474 34.7051 17.061L34.8051 17.072" fill="white"/>
<path d="M4.06302 22.279L11.433 16.695L18.8 22.276C18.8357 22.1306 18.8611 21.9829 18.876 21.834C18.876 20.616 18.876 19.397 18.884 18.178C18.8886 18.0596 18.8623 17.9421 18.8078 17.8369C18.7533 17.7317 18.6724 17.6425 18.573 17.578C16.729 16.186 14.9 14.781 13.047 13.398C12.589 13.0216 12.0138 12.817 11.421 12.8196C10.8281 12.8222 10.2548 13.0317 9.80002 13.412C7.96302 14.788 6.14102 16.182 4.31102 17.564C4.21553 17.6209 4.13658 17.7017 4.08202 17.7986C4.02746 17.8954 3.99919 18.0048 4.00002 18.116C4.01102 19.383 4.00002 20.65 4.00702 21.916C4.01907 22.0376 4.03776 22.1584 4.06302 22.278" fill="#231F20"/>
</svg>
