<svg width="29" height="21" viewBox="0 0 29 21" fill="none" xmlns="http://www.w3.org/2000/svg">
<path d="M27.5 0H1.5C0.671573 0 0 0.671573 0 1.5C0 2.32843 0.671573 3 1.5 3H27.5C28.3284 3 29 2.32843 29 1.5C29 0.671573 28.3284 0 27.5 0Z" fill="white"/>
<path d="M27.5 9H1.5C0.671573 9 0 9.67157 0 10.5C0 11.3284 0.671573 12 1.5 12H27.5C28.3284 12 29 11.3284 29 10.5C29 9.67157 28.3284 9 27.5 9Z" fill="white"/>
<path d="M27.5 18H1.5C0.671573 18 0 18.6716 0 19.5C0 20.3284 0.671573 21 1.5 21H27.5C28.3284 21 29 20.3284 29 19.5C29 18.6716 28.3284 18 27.5 18Z" fill="white"/>
</svg>
