<svg id="svg" version="1.1" xmlns="http://www.w3.org/2000/svg" xmlns:xlink="http://www.w3.org/1999/xlink" width="400" height="400" viewBox="0, 0, 400,400"><g id="svgg"><path id="path0" d="M176.258 26.170 C 67.132 41.638,-0.953 151.357,33.726 255.859 C 67.329 357.119,184.907 404.797,280.361 355.871 C 385.723 301.867,407.763 160.082,323.840 76.160 C 285.266 37.586,229.348 18.645,176.258 26.170 M220.703 52.033 C 342.144 68.382,392.390 218.586,305.488 305.488 C 224.101 386.875,84.870 349.350,55.523 238.118 C 28.334 135.063,114.703 37.763,220.703 52.033 M186.328 113.963 C 157.284 122.337,139.535 158.673,162.380 162.989 C 168.725 164.188,173.518 160.999,177.591 152.868 C 189.328 129.438,222.551 135.211,224.034 160.938 C 224.684 172.218,219.854 179.720,207.956 185.910 C 193.876 193.236,187.497 204.064,187.503 220.630 C 187.507 233.178,190.705 237.494,200.000 237.494 C 207.828 237.494,212.476 232.854,212.516 225.000 C 212.565 215.276,214.508 211.810,222.160 207.798 C 270.187 182.618,253.047 112.178,198.985 112.556 C 193.914 112.591,189.311 113.103,186.328 113.963 M193.157 251.558 C 188.293 254.524,187.506 256.919,187.506 268.750 C 187.506 283.358,190.263 287.494,200.000 287.494 C 209.737 287.494,212.494 283.358,212.494 268.750 C 212.494 254.142,209.737 250.006,200.000 250.006 C 197.087 250.006,194.883 250.506,193.157 251.558 " stroke="none" fill="#000000" fill-rule="evenodd"></path></g></svg>