<svg width="31" height="31" viewBox="0 0 31 31" fill="none" xmlns="http://www.w3.org/2000/svg">
<path d="M15.3708 7.07837C13.2099 7.07837 12.9381 7.08832 12.089 7.12615C11.24 7.16596 10.6617 7.29935 10.155 7.49643C9.62355 7.69633 9.14218 8.00988 8.74453 8.41518C8.33948 8.81303 8.02596 9.29435 7.82578 9.82565C7.62869 10.3313 7.49431 10.9106 7.45549 11.7567C7.41767 12.6078 7.40771 12.8785 7.40771 15.0425C7.40771 17.2045 7.41767 17.4752 7.45549 18.3243C7.49531 19.1724 7.62869 19.7507 7.82578 20.2574C8.02983 20.7809 8.30158 21.2249 8.74453 21.6678C9.18648 22.1108 9.63042 22.3835 10.154 22.5866C10.6617 22.7837 11.239 22.918 12.0871 22.9569C12.9371 22.9947 13.2079 23.0046 15.3708 23.0046C17.5338 23.0046 17.8036 22.9947 18.6537 22.9569C19.5007 22.917 20.081 22.7837 20.5877 22.5866C21.1188 22.3866 21.5998 22.073 21.9972 21.6678C22.4401 21.2249 22.7119 20.7809 22.9159 20.2574C23.112 19.7507 23.2464 19.1724 23.2862 18.3243C23.324 17.4752 23.334 17.2045 23.334 15.0415C23.334 12.8785 23.324 12.6078 23.2862 11.7577C23.2464 10.9106 23.112 10.3313 22.9159 9.82565C22.7158 9.29434 22.4022 8.81301 21.9972 8.41518C21.5996 8.00973 21.1182 7.69615 20.5867 7.49643C20.0791 7.29935 19.4997 7.16497 18.6527 7.12615C17.8026 7.08832 17.5328 7.07837 15.3689 7.07837H15.3718H15.3708ZM14.6572 8.51372H15.3718C17.498 8.51372 17.7498 8.52069 18.589 8.55951C19.3654 8.59435 19.7874 8.72475 20.0681 8.83324C20.4394 8.97758 20.7052 9.15077 20.9839 9.42948C21.2626 9.70819 21.4348 9.97297 21.5791 10.3452C21.6886 10.6249 21.818 11.047 21.8528 11.8234C21.8917 12.6625 21.8996 12.9144 21.8996 15.0395C21.8996 17.1647 21.8917 17.4175 21.8528 18.2566C21.818 19.033 21.6876 19.4541 21.5791 19.7348C21.4514 20.0805 21.2477 20.3932 20.9829 20.6495C20.7042 20.9282 20.4394 21.1005 20.0671 21.2448C19.7884 21.3543 19.3664 21.4837 18.589 21.5195C17.7498 21.5573 17.498 21.5663 15.3718 21.5663C13.2457 21.5663 12.9929 21.5573 12.1537 21.5195C11.3773 21.4837 10.9563 21.3543 10.6756 21.2448C10.3297 21.1173 10.0168 20.9139 9.75983 20.6495C9.4948 20.3928 9.29072 20.0798 9.16259 19.7338C9.05409 19.4541 8.9237 19.032 8.88886 18.2556C8.85103 17.4165 8.84307 17.1647 8.84307 15.0375C8.84307 12.9114 8.85103 12.6605 8.88886 11.8214C8.92469 11.045 9.05409 10.623 9.16359 10.3423C9.30792 9.97098 9.48112 9.70521 9.75983 9.4265C10.0385 9.14779 10.3033 8.97559 10.6756 8.83125C10.9563 8.72176 11.3773 8.59236 12.1537 8.55653C12.8883 8.52268 13.173 8.51273 14.6572 8.51173V8.51372ZM19.6222 9.8356C19.4967 9.8356 19.3724 9.86032 19.2565 9.90834C19.1405 9.95637 19.0352 10.0268 18.9465 10.1155C18.8577 10.2042 18.7874 10.3096 18.7393 10.4255C18.6913 10.5414 18.6666 10.6657 18.6666 10.7912C18.6666 10.9167 18.6913 11.0409 18.7393 11.1569C18.7874 11.2728 18.8577 11.3781 18.9465 11.4669C19.0352 11.5556 19.1405 11.626 19.2565 11.674C19.3724 11.722 19.4967 11.7468 19.6222 11.7468C19.8756 11.7468 20.1187 11.6461 20.2979 11.4669C20.4771 11.2877 20.5777 11.0446 20.5777 10.7912C20.5777 10.5377 20.4771 10.2947 20.2979 10.1155C20.1187 9.93628 19.8756 9.8356 19.6222 9.8356ZM15.3718 10.9524C14.8294 10.944 14.2907 11.0435 13.7872 11.2452C13.2836 11.4469 12.8251 11.7468 12.4386 12.1274C12.052 12.508 11.745 12.9617 11.5354 13.4621C11.3259 13.9625 11.218 14.4995 11.218 15.042C11.218 15.5845 11.3259 16.1215 11.5354 16.6219C11.745 17.1223 12.052 17.576 12.4386 17.9566C12.8251 18.3372 13.2836 18.6371 13.7872 18.8388C14.2907 19.0405 14.8294 19.14 15.3718 19.1316C16.4454 19.1148 17.4693 18.6766 18.2226 17.9115C18.9759 17.1463 19.3981 16.1157 19.3981 15.042C19.3981 13.9683 18.9759 12.9377 18.2226 12.1725C17.4693 11.4074 16.4454 10.9692 15.3718 10.9524ZM15.3718 12.3868C16.0759 12.3868 16.7512 12.6665 17.249 13.1643C17.7469 13.6622 18.0266 14.3374 18.0266 15.0415C18.0266 15.7456 17.7469 16.4208 17.249 16.9187C16.7512 17.4165 16.0759 17.6962 15.3718 17.6962C14.6678 17.6962 13.9925 17.4165 13.4947 16.9187C12.9968 16.4208 12.7171 15.7456 12.7171 15.0415C12.7171 14.3374 12.9968 13.6622 13.4947 13.1643C13.9925 12.6665 14.6678 12.3868 15.3718 12.3868Z" fill="#C6D868"/>
<circle cx="15.3711" cy="15.0415" r="14.5991" stroke="#C6D868" stroke-width="0.884793"/>
</svg>
