<svg width="22" height="27" viewBox="0 0 22 27" fill="none" xmlns="http://www.w3.org/2000/svg">
<path d="M8.67654 13.239C7.50014 13.239 6.35012 12.8901 5.37198 12.2366C4.39383 11.583 3.63149 10.6541 3.1813 9.5672C2.73111 8.48034 2.6133 7.28441 2.8428 6.13061C3.07231 4.97681 3.63877 3.91698 4.47061 3.08514C5.30245 2.2533 6.36234 1.68678 7.51614 1.45727C8.66994 1.22777 9.86581 1.34558 10.9527 1.79577C12.0395 2.24596 12.9685 3.0083 13.6221 3.98645C14.2757 4.96459 14.6245 6.11461 14.6245 7.29101C14.623 8.86803 13.9958 10.38 12.8806 11.4951C11.7655 12.6102 10.2536 13.2374 8.67654 13.239ZM8.67654 2.01501C7.63305 2.01501 6.6129 2.32444 5.74527 2.90417C4.87763 3.48391 4.20148 4.30791 3.80215 5.27197C3.40282 6.23603 3.29828 7.29687 3.50186 8.32031C3.70543 9.34375 4.20797 10.2838 4.94583 11.0217C5.68369 11.7595 6.6238 12.2621 7.64724 12.4656C8.67069 12.6692 9.73152 12.5647 10.6956 12.1654C11.6596 11.7661 12.4836 11.0898 13.0634 10.2222C13.6431 9.35453 13.9525 8.33451 13.9525 7.29101C13.951 5.89222 13.3945 4.55117 12.4054 3.56207C11.4163 2.57297 10.0753 2.0166 8.67654 2.01501Z" fill="#003341"/>
<path d="M8.67654 2.01501C7.63305 2.01501 6.6129 2.32444 5.74527 2.90417C4.87763 3.48391 4.20148 4.30791 3.80215 5.27197C3.40282 6.23603 3.29828 7.29687 3.50186 8.32031C3.70543 9.34375 4.20797 10.2838 4.94583 11.0217C5.68369 11.7595 6.6238 12.2621 7.64724 12.4656C8.67069 12.6692 9.73152 12.5647 10.6956 12.1654C11.6596 11.7661 12.4836 11.0898 13.0634 10.2222C13.6431 9.35453 13.9525 8.33451 13.9525 7.29101C13.951 5.89222 13.3945 4.55117 12.4054 3.56207C11.4163 2.57297 10.0753 2.0166 8.67654 2.01501M8.67654 13.239C7.50014 13.239 6.35012 12.8901 5.37198 12.2366C4.39383 11.583 3.63149 10.6541 3.1813 9.5672C2.73111 8.48034 2.6133 7.28441 2.8428 6.13061C3.07231 4.97681 3.63877 3.91698 4.47061 3.08514C5.30245 2.2533 6.36234 1.68678 7.51614 1.45727C8.66994 1.22777 9.86581 1.34558 10.9527 1.79577C12.0395 2.24596 12.9685 3.0083 13.6221 3.98645C14.2757 4.96459 14.6245 6.11461 14.6245 7.29101C14.623 8.86803 13.9958 10.38 12.8806 11.4951C11.7655 12.6102 10.2536 13.2374 8.67654 13.239Z" stroke="#003341"/>
<path d="M16.1201 25.585H1.52014C1.47598 25.5851 1.43218 25.5765 1.39136 25.5597C1.35053 25.5428 1.31345 25.5181 1.28223 25.4868C1.251 25.4556 1.22631 25.4185 1.20947 25.3777C1.19264 25.3369 1.18395 25.2932 1.18408 25.249V20.205C1.18408 19.2021 1.38171 18.209 1.7655 17.2824C2.1493 16.3559 2.71174 15.5139 3.4209 14.8048C4.13006 14.0956 4.972 13.5331 5.89856 13.1493C6.82512 12.7655 7.81826 12.568 8.82117 12.568C9.82407 12.568 10.8171 12.7655 11.7437 13.1493C12.6702 13.5331 13.5122 14.0956 14.2213 14.8048C14.9305 15.5139 15.493 16.3559 15.8768 17.2824C16.2606 18.209 16.4581 19.2021 16.4581 20.205V25.249C16.4583 25.2932 16.4497 25.3369 16.4329 25.3777C16.416 25.4185 16.3912 25.4556 16.36 25.4868C16.3288 25.5181 16.2917 25.5428 16.2509 25.5597C16.21 25.5765 16.1662 25.5851 16.1221 25.585H16.1201ZM1.85608 24.912H15.7861V20.205C15.7861 18.3578 15.0523 16.5862 13.7461 15.28C12.4399 13.9738 10.6684 13.24 8.82117 13.24C6.97394 13.24 5.20231 13.9738 3.89612 15.28C2.58993 16.5862 1.85608 18.3578 1.85608 20.205V24.912Z" fill="#003341" stroke="#003341"/>
<path d="M14.0304 14.5C13.3244 14.5021 12.625 14.364 11.9727 14.0938C11.3204 13.8237 10.7281 13.4267 10.2304 12.926C10.1729 12.862 10.1423 12.7783 10.1447 12.6924C10.147 12.6064 10.1823 12.5246 10.2432 12.4638C10.3041 12.4031 10.3859 12.368 10.4719 12.3658C10.5579 12.3636 10.6414 12.3944 10.7053 12.452C11.2522 12.9974 11.9252 13.3996 12.6646 13.623C13.4039 13.8465 14.1869 13.8842 14.9443 13.733C15.7018 13.5818 16.4103 13.2462 17.0072 12.756C17.6041 12.2658 18.0709 11.6361 18.3665 10.9225C18.662 10.2089 18.7771 9.43339 18.7017 8.6647C18.6262 7.89602 18.3624 7.15778 17.9337 6.51529C17.505 5.8728 16.9246 5.34588 16.2438 4.98111C15.563 4.61634 14.8028 4.425 14.0304 4.42398C13.7999 4.42414 13.5695 4.44053 13.3413 4.47299C13.2977 4.48007 13.2531 4.47833 13.2101 4.46793C13.1671 4.45752 13.1267 4.43865 13.0911 4.41238C13.0555 4.38611 13.0254 4.35299 13.0028 4.31497C12.9802 4.27695 12.9654 4.23476 12.9594 4.19095C12.9528 4.14721 12.9551 4.10262 12.9658 4.05972C12.9766 4.01683 12.9957 3.9765 13.0221 3.94101C13.0485 3.90552 13.0815 3.87559 13.1195 3.85294C13.1575 3.83028 13.1997 3.81535 13.2434 3.80899C13.5041 3.77133 13.767 3.75227 14.0304 3.75198C15.4557 3.75198 16.8225 4.31814 17.8303 5.32596C18.8382 6.33378 19.4044 7.70067 19.4044 9.12595C19.4044 10.5512 18.8382 11.9181 17.8303 12.9259C16.8225 13.9338 15.4557 14.5 14.0304 14.5Z" fill="#003341"/>
<path d="M14.0304 14.5C13.3244 14.5021 12.625 14.364 11.9727 14.0938C11.3204 13.8237 10.7281 13.4267 10.2304 12.926C10.1729 12.862 10.1423 12.7783 10.1447 12.6924C10.147 12.6064 10.1823 12.5246 10.2432 12.4638C10.3041 12.4031 10.3859 12.368 10.4719 12.3658C10.5579 12.3636 10.6414 12.3944 10.7053 12.452C11.2522 12.9974 11.9252 13.3996 12.6646 13.623C13.4039 13.8465 14.1869 13.8842 14.9443 13.733C15.7018 13.5818 16.4103 13.2462 17.0072 12.756C17.6041 12.2658 18.0709 11.6361 18.3665 10.9225C18.662 10.2089 18.7771 9.43339 18.7017 8.6647C18.6262 7.89602 18.3624 7.15778 17.9337 6.51529C17.505 5.8728 16.9246 5.34588 16.2438 4.98111C15.563 4.61634 14.8028 4.425 14.0304 4.42398C13.7999 4.42414 13.5695 4.44053 13.3413 4.47299C13.2977 4.48007 13.2531 4.47833 13.2101 4.46793C13.1671 4.45752 13.1267 4.43865 13.0911 4.41238C13.0555 4.38611 13.0254 4.35299 13.0028 4.31497C12.9802 4.27695 12.9654 4.23476 12.9594 4.19095C12.9528 4.14721 12.9551 4.10262 12.9658 4.05972C12.9766 4.01683 12.9957 3.9765 13.0221 3.94101C13.0485 3.90552 13.0815 3.87559 13.1195 3.85294C13.1575 3.83028 13.1997 3.81535 13.2434 3.80899C13.5041 3.77133 13.767 3.75227 14.0304 3.75198C15.4557 3.75198 16.8225 4.31814 17.8303 5.32596C18.8381 6.33378 19.4044 7.70067 19.4044 9.12595C19.4044 10.5512 18.8381 11.9181 17.8303 12.9259C16.8225 13.9338 15.4557 14.5 14.0304 14.5" stroke="#003341"/>
<path d="M20.7142 25.5849H16.1202C16.0311 25.5849 15.9457 25.5495 15.8827 25.4865C15.8197 25.4235 15.7843 25.3381 15.7843 25.249C15.7843 25.1598 15.8197 25.0744 15.8827 25.0113C15.9457 24.9483 16.0311 24.913 16.1202 24.913H20.3772V20.7199C20.3908 19.087 19.7563 17.5154 18.6128 16.3498C17.4692 15.1841 15.91 14.5196 14.2772 14.5019C13.933 14.5017 13.5895 14.5308 13.2502 14.5889C13.2062 14.5978 13.1608 14.5977 13.1168 14.5887C13.0728 14.5797 13.0312 14.562 12.9941 14.5366C12.9571 14.5112 12.9255 14.4786 12.9012 14.4408C12.877 14.403 12.8606 14.3608 12.853 14.3165C12.8454 14.2723 12.8467 14.2269 12.8569 14.1832C12.8671 14.1395 12.8859 14.0983 12.9123 14.0619C12.9388 14.0256 12.9722 13.9949 13.0106 13.9717C13.0491 13.9485 13.0918 13.9333 13.1362 13.9269C14.1179 13.759 15.1246 13.8096 16.0845 14.0752C17.0444 14.3409 17.9339 14.8149 18.6897 15.4636C19.4454 16.1123 20.0488 16.9197 20.4568 17.8282C20.8648 18.7368 21.0675 19.7241 21.0503 20.7199V25.249C21.0504 25.293 21.0418 25.3367 21.025 25.3774C21.0082 25.4182 20.9836 25.4552 20.9525 25.4864C20.9214 25.5177 20.8843 25.5424 20.8436 25.5593C20.8029 25.5762 20.7593 25.5849 20.7152 25.5849" fill="#003341"/>
<path d="M20.7142 25.5849H16.1202C16.0311 25.5849 15.9457 25.5495 15.8827 25.4865C15.8197 25.4235 15.7843 25.3381 15.7843 25.249C15.7843 25.1598 15.8197 25.0744 15.8827 25.0113C15.9457 24.9483 16.0311 24.913 16.1202 24.913H20.3772V20.7199C20.3908 19.087 19.7563 17.5154 18.6128 16.3498C17.4692 15.1841 15.91 14.5196 14.2772 14.5019C13.933 14.5017 13.5895 14.5308 13.2502 14.5889C13.2062 14.5978 13.1608 14.5977 13.1168 14.5887C13.0728 14.5797 13.0312 14.562 12.9941 14.5366C12.9571 14.5112 12.9255 14.4786 12.9012 14.4408C12.877 14.403 12.8606 14.3608 12.853 14.3165C12.8454 14.2723 12.8467 14.2269 12.8569 14.1832C12.8671 14.1395 12.8859 14.0983 12.9123 14.0619C12.9388 14.0256 12.9722 13.9949 13.0106 13.9717C13.0491 13.9485 13.0918 13.9333 13.1362 13.9269C14.1179 13.759 15.1246 13.8096 16.0845 14.0752C17.0444 14.3409 17.9339 14.8149 18.6897 15.4636C19.4454 16.1123 20.0488 16.9197 20.4568 17.8282C20.8648 18.7368 21.0675 19.7241 21.0503 20.7199V25.249C21.0504 25.293 21.0418 25.3367 21.025 25.3774C21.0082 25.4182 20.9836 25.4552 20.9525 25.4864C20.9214 25.5177 20.8843 25.5424 20.8436 25.5593C20.8029 25.5762 20.7593 25.5849 20.7152 25.5849" stroke="#003341"/>
</svg>
