<svg width="31" height="31" viewBox="0 0 31 31" fill="none" xmlns="http://www.w3.org/2000/svg">
<path fill-rule="evenodd" clip-rule="evenodd" d="M13.4112 12.6279H16.3687V14.1011C16.7947 13.2538 17.8873 12.4925 19.5285 12.4925C22.6747 12.4925 23.4216 14.1791 23.4216 17.2736V23.0046H20.2364V17.9783C20.2364 16.2161 19.8103 15.2223 18.7258 15.2223C17.2215 15.2223 16.5964 16.2933 16.5964 17.9775V23.0046H13.4112V12.6279ZM7.94926 22.8693H11.1345V12.4925H7.94926V22.8693ZM11.5908 9.10897C11.5909 9.37595 11.538 9.6403 11.435 9.88664C11.3321 10.133 11.1812 10.3564 10.9912 10.5439C10.6061 10.9267 10.0848 11.1409 9.54189 11.1396C8.99991 11.1392 8.47985 10.9255 8.09419 10.5447C7.90483 10.3566 7.75447 10.1329 7.65171 9.88651C7.54895 9.64014 7.49582 9.37591 7.49536 9.10897C7.49536 8.56986 7.71037 8.05385 8.09499 7.67322C8.48031 7.29191 9.00058 7.07813 9.54268 7.07837C10.0858 7.07837 10.6066 7.29258 10.9912 7.67322C11.375 8.05385 11.5908 8.56986 11.5908 9.10897Z" fill="#C6D868"/>
<circle cx="15.4585" cy="15.0415" r="14.5991" stroke="#C6D868" stroke-width="0.884793"/>
</svg>
