<svg width="13" height="19" viewBox="0 0 13 19" fill="none" xmlns="http://www.w3.org/2000/svg">
<path d="M6.39694 9.174C5.54971 9.174 4.72151 8.9343 4.01707 8.48522C3.31262 8.03613 2.76358 7.39783 2.43936 6.65103C2.11514 5.90423 2.03031 5.08247 2.19559 4.28967C2.36088 3.49687 2.76885 2.76863 3.36793 2.19706C3.96701 1.62548 4.73029 1.23623 5.56124 1.07853C6.39219 0.920834 7.25349 1.00177 8.03622 1.31111C8.81896 1.62044 9.48797 2.14428 9.95866 2.81639C10.4294 3.48849 10.6806 4.27867 10.6806 5.087C10.6795 6.17062 10.2278 7.20955 9.42472 7.97578C8.62162 8.74201 7.5327 9.17294 6.39694 9.174V9.174ZM6.39694 1.462C5.64548 1.462 4.9109 1.6746 4.28609 2.07292C3.66127 2.47124 3.1743 3.03739 2.88673 3.69977C2.59916 4.36216 2.52392 5.09102 2.67052 5.79421C2.81712 6.49739 3.17898 7.1433 3.71034 7.65026C4.2417 8.15723 4.9187 8.50248 5.65571 8.64235C6.39273 8.78222 7.15666 8.71043 7.85091 8.43607C8.54517 8.1617 9.13855 7.69707 9.55604 7.10095C9.97353 6.50482 10.1964 5.80396 10.1964 5.087C10.1966 4.12505 9.79661 3.20235 9.08417 2.52168C8.37173 1.84101 7.40518 1.45806 6.39694 1.457" fill="white"/>
<path d="M6.39694 1.462C5.64548 1.462 4.9109 1.6746 4.28609 2.07292C3.66127 2.47124 3.1743 3.03739 2.88673 3.69977C2.59916 4.36216 2.52392 5.09102 2.67052 5.79421C2.81712 6.49739 3.17898 7.1433 3.71034 7.65026C4.2417 8.15723 4.9187 8.50248 5.65571 8.64235C6.39273 8.78222 7.15666 8.71043 7.85091 8.43607C8.54517 8.1617 9.13855 7.69707 9.55604 7.10095C9.97353 6.50482 10.1964 5.80396 10.1964 5.087C10.1966 4.12505 9.79661 3.20235 9.08417 2.52168C8.37173 1.84101 7.40518 1.45806 6.39694 1.457M6.39694 9.174C5.54971 9.174 4.72151 8.9343 4.01707 8.48522C3.31262 8.03613 2.76358 7.39783 2.43936 6.65103C2.11514 5.90423 2.03031 5.08247 2.19559 4.28967C2.36088 3.49687 2.76885 2.76863 3.36793 2.19706C3.96701 1.62548 4.73029 1.23623 5.56124 1.07853C6.39219 0.920834 7.25349 1.00177 8.03622 1.31111C8.81896 1.62044 9.48797 2.14428 9.95866 2.81639C10.4294 3.48849 10.6806 4.27867 10.6806 5.087C10.6795 6.17062 10.2278 7.20955 9.42472 7.97578C8.62162 8.74201 7.5327 9.17294 6.39694 9.174V9.174Z" stroke="white"/>
<path d="M11.7579 17.657H1.24212C1.21029 17.6571 1.17873 17.6513 1.1493 17.6397C1.11986 17.6281 1.09311 17.6111 1.0706 17.5896C1.04809 17.5682 1.03026 17.5426 1.01815 17.5146C1.00603 17.4865 0.999864 17.4564 1 17.426V13.957C1 12.5653 1.57946 11.2306 2.61091 10.2465C3.64236 9.26236 5.04131 8.7095 6.5 8.7095C7.95869 8.7095 9.35763 9.26236 10.3891 10.2465C11.4205 11.2306 12 12.5653 12 13.957V17.423C12.0001 17.4534 11.994 17.4835 11.9819 17.5116C11.9697 17.5396 11.9519 17.5652 11.9294 17.5866C11.9069 17.6081 11.8801 17.6251 11.8507 17.6367C11.8213 17.6483 11.7897 17.6541 11.7579 17.654V17.657ZM1.48633 17.192H11.5179V13.957C11.5275 13.3227 11.4048 12.693 11.1571 12.1043C10.9093 11.5157 10.5414 10.9799 10.0747 10.5282C9.60798 10.0764 9.0518 9.71765 8.43848 9.47279C7.82516 9.22792 7.16695 9.10183 6.50209 9.10183C5.83724 9.10183 5.17903 9.22792 4.56571 9.47279C3.95239 9.71765 3.39621 10.0764 2.9295 10.5282C2.46278 10.9799 2.09486 11.5157 1.8471 12.1043C1.59935 12.693 1.47672 13.3227 1.48633 13.957V17.192Z" fill="white" stroke="white"/>
</svg>
