<svg width="65" height="71" viewBox="0 0 65 71" fill="none" xmlns="http://www.w3.org/2000/svg">
<path d="M42.0385 22.8683C42.0385 19.9115 39.1769 18.3856 35.6495 18.3856C33.5563 18.4346 31.5185 19.0677 29.766 20.2135C28.0135 21.3592 26.6161 22.972 25.7316 24.8698L8.75586 16.3797C13.6203 7.22514 23.251 0.930664 38.5081 0.930664C53.4802 0.930664 64.6384 7.2244 64.6384 19.1452C64.6384 33.7371 49.3798 36.3107 49.3798 43.6558H29.7382C29.7382 32.1181 42.0399 28.6837 42.0399 22.8683H42.0385ZM26.9719 58.7238C26.9719 52.3348 32.122 47.4718 39.5608 47.4718C46.9996 47.4718 52.1483 52.3348 52.1483 58.7238C52.1483 65.0175 46.9982 70.167 39.5608 70.167C32.1235 70.167 26.9719 65.0161 26.9719 58.7238Z" fill="#E08A30"/>
<path d="M33.9545 22.8683C33.9545 19.9115 31.093 18.3856 27.5655 18.3856C25.4723 18.4346 23.4345 19.0677 21.682 20.2135C19.9295 21.3592 18.5322 22.972 17.6476 24.8698L0.671875 16.3797C5.53633 7.22514 15.167 0.930664 30.4241 0.930664C45.3962 0.930664 56.5544 7.2244 56.5544 19.1452C56.5544 33.7371 41.2966 36.3107 41.2966 43.6558H21.6512C21.6512 32.1181 33.953 28.6837 33.953 22.8683H33.9545ZM18.885 58.7238C18.885 52.3348 24.0351 47.4718 31.4739 47.4718C38.9127 47.4718 44.0614 52.3348 44.0614 58.7238C44.0614 65.0175 38.9112 70.167 31.4739 70.167C24.0366 70.167 18.885 65.0161 18.885 58.7238Z" fill="#FCB94D"/>
</svg>
