<svg width="49" height="51" viewBox="0 0 49 51" fill="none" xmlns="http://www.w3.org/2000/svg">
<path d="M32.1176 20.0867C32.6899 18.4488 31.4211 17.0536 29.4934 16.38C28.3389 16.007 27.1016 15.9682 25.9211 16.268C24.7407 16.5678 23.6641 17.1943 22.8128 18.0766L15.17 10.1279C19.6011 5.98982 26.0908 4.33934 34.4369 7.25581C42.6273 10.1178 47.5118 15.7376 45.204 22.3419C42.379 30.4264 33.5348 28.9355 32.1134 33.0031L21.3675 29.2481C23.6012 22.856 30.9954 23.3038 32.1211 20.0824L32.1176 20.0867ZM16.937 37.0678C18.1733 33.53 21.9325 31.8179 26.0012 33.2397C30.0699 34.6615 31.9454 38.3404 30.7085 41.8801C29.4899 45.3673 25.6759 47.236 21.6072 45.8142C17.5384 44.3924 15.7185 40.555 16.937 37.0678Z" fill="#668914"/>
<path d="M27.6948 18.5414C28.2671 16.9035 26.9984 15.5083 25.0707 14.8347C23.9163 14.462 22.6792 14.4234 21.499 14.7232C20.3187 15.023 19.2422 15.6495 18.391 16.5317L10.7483 8.58302C15.1803 4.44522 21.6691 2.79442 30.0152 5.71088C38.2055 8.57292 43.0901 14.1927 40.7823 20.797C37.9572 28.8815 29.113 27.3906 27.6917 31.4582L16.9458 27.7031C19.1794 21.3111 26.5737 21.7589 27.6994 18.5375L27.6948 18.5414ZM12.5152 35.5229C13.7514 31.985 17.5107 30.273 21.5795 31.6948C25.6482 33.1166 27.5235 36.7954 26.2866 40.3352C25.068 43.8223 21.2541 45.6911 17.1854 44.2693C13.1167 42.8475 11.2966 39.0101 12.5152 35.5229Z" fill="#C7DB5D"/>
</svg>
