<svg width="24" height="25" viewBox="0 0 24 25" fill="none" xmlns="http://www.w3.org/2000/svg">
<path d="M9.60377 24.483H1.25L9.60377 16.1292V24.483Z" fill="white"/>
<path d="M4.98633 2.80471L7.05335 1.61131L8.24675 3.67834L6.17972 4.87173L4.98633 2.80471Z" fill="white"/>
<path d="M1.05518 7.6218L2.24857 5.55477L4.31559 6.74817L3.1222 8.81519L1.05518 7.6218Z" fill="white"/>
<path d="M6.38164 23.0509C2.44343 21.0222 0.0566406 16.9646 0.0566406 12.5491V11.3557H2.44343V12.5491C2.44343 16.1292 4.35287 19.3514 7.4557 21.0222L6.38164 23.0509ZM14.3774 0.615097H22.7312L14.3774 8.96887V0.615097Z" fill="white"/>
<path d="M15.7334 21.4199L17.8004 20.2265L18.9938 22.2936L16.9268 23.487L15.7334 21.4199Z" fill="white"/>
<path d="M19.6648 18.3489L20.8582 16.2819L22.9252 17.4753L21.7318 19.5423L19.6648 18.3489Z" fill="white"/>
<path d="M23.9244 13.7425H21.5377V12.5491C21.5377 8.96887 19.6282 5.7467 16.5254 4.07595L17.5994 1.92783C21.5377 4.07595 23.9244 8.13349 23.9244 12.5491V13.7425Z" fill="white"/>
</svg>
