<svg width="31" height="31" viewBox="0 0 31 31" fill="none" xmlns="http://www.w3.org/2000/svg">
<path d="M23.9079 7.97107C23.1524 8.50399 22.3159 8.91158 21.4306 9.17816C20.9555 8.63182 20.324 8.24459 19.6216 8.06884C18.9192 7.89309 18.1798 7.9373 17.5033 8.19549C16.8268 8.45368 16.246 8.91339 15.8393 9.51245C15.4327 10.1115 15.2198 10.821 15.2295 11.545V12.334C13.843 12.3699 12.4692 12.0624 11.2303 11.4389C9.99144 10.8153 8.92602 9.89503 8.12893 8.76002C8.12893 8.76002 4.97312 15.8606 12.0737 19.0164C10.4489 20.1193 8.51327 20.6723 6.55103 20.5943C13.6516 24.539 22.33 20.5943 22.33 11.5213C22.33 11.3004 22.3064 11.0795 22.2669 10.8665C23.0721 10.0724 23.6404 9.06985 23.9079 7.97107V7.97107Z" stroke="#C6D868" stroke-width="1.32719" stroke-linecap="round" stroke-linejoin="round"/>
<circle cx="15.3989" cy="15.0415" r="14.5991" stroke="#C6D868" stroke-width="0.884793"/>
</svg>
