<?xml version="1.0" standalone="no"?>
<!DOCTYPE svg PUBLIC "-//W3C//DTD SVG 20010904//EN"
 "http://www.w3.org/TR/2001/REC-SVG-20010904/DTD/svg10.dtd">
<svg version="1.0" xmlns="http://www.w3.org/2000/svg"
 width="512.000000pt" height="512.000000pt" viewBox="0 0 512.000000 512.000000"
 preserveAspectRatio="xMidYMid meet">

<g transform="translate(0.000000,512.000000) scale(0.100000,-0.100000)"
fill="#000000" stroke="none">
<path d="M2590 5114 c-423 -49 -721 -143 -1020 -324 -615 -370 -1022 -980
-1125 -1680 -22 -153 -30 -400 -17 -530 l11 -105 -34 -90 c-43 -116 -60 -222
-52 -333 14 -200 93 -377 231 -514 l57 -57 -33 -17 c-142 -73 -322 -237 -411
-374 -154 -238 -197 -406 -197 -763 0 -240 8 -270 80 -307 39 -20 57 -20 1070
-20 1013 0 1031 0 1070 20 70 36 80 70 80 273 l0 174 74 -13 c542 -94 1129 15
1596 296 470 282 821 706 1008 1216 96 261 136 500 136 804 0 239 -13 359 -65
570 -184 747 -734 1361 -1464 1635 -128 48 -331 99 -476 120 -107 16 -442 28
-519 19z m420 -310 c886 -103 1613 -782 1774 -1659 106 -573 -31 -1149 -385
-1617 -80 -107 -280 -307 -387 -387 -476 -360 -1068 -496 -1647 -380 -55 11
-105 26 -111 32 -6 7 -19 35 -29 62 -27 76 -72 162 -128 244 -34 51 -44 72
-31 66 420 -171 851 -190 1257 -55 788 263 1288 1058 1182 1877 -78 594 -433
1090 -970 1354 -920 452 -2028 14 -2399 -948 -54 -138 -106 -364 -106 -456 0
-42 3 -40 -120 -77 -41 -12 -97 -34 -125 -49 -27 -14 -53 -27 -57 -29 -18 -8
-1 207 28 367 77 416 286 800 600 1101 445 425 1043 625 1654 554z m29 -609
c189 -37 379 -117 553 -231 94 -62 310 -278 372 -372 115 -175 194 -364 233
-559 24 -122 24 -404 0 -526 -39 -195 -118 -384 -233 -559 -62 -94 -278 -310
-372 -372 -175 -115 -364 -194 -559 -233 -134 -26 -415 -24 -550 5 -228 49
-466 162 -627 296 l-29 24 35 74 c43 89 64 152 78 238 59 375 -170 752 -532
875 l-84 28 8 66 c62 531 438 1000 951 1185 83 31 244 69 337 80 73 9 338 -3
419 -19z m-1787 -1606 c227 -47 398 -259 398 -492 0 -226 -175 -439 -398 -486
-306 -64 -602 177 -602 489 0 225 164 433 383 486 66 16 152 17 219 3z m131
-1323 c288 -85 497 -294 583 -583 21 -71 27 -116 31 -236 l6 -147 -853 0 -853
0 6 148 c4 119 10 164 31 235 96 321 348 546 683 607 88 16 269 4 366 -24z"/>
<path d="M2698 3899 c-49 -25 -78 -82 -78 -149 0 -39 -4 -52 -17 -56 -160 -52
-299 -190 -355 -352 -32 -95 -32 -249 0 -344 73 -212 260 -358 482 -374 108
-8 166 -29 215 -79 98 -98 98 -252 0 -350 -98 -98 -252 -98 -350 0 -44 44 -75
114 -75 172 0 79 -73 153 -150 153 -51 0 -107 -35 -131 -82 -18 -36 -21 -53
-16 -114 12 -138 74 -262 178 -358 50 -47 139 -99 202 -120 13 -4 17 -17 17
-56 0 -69 29 -124 80 -150 109 -56 220 20 220 150 0 39 4 52 18 56 159 52 298
190 354 352 32 95 32 249 0 344 -73 212 -260 358 -482 374 -108 8 -166 29
-215 79 -98 98 -98 252 0 350 98 98 252 98 350 0 44 -44 75 -114 75 -172 0
-79 73 -153 150 -153 51 0 107 35 131 82 18 36 21 53 16 114 -12 138 -74 262
-178 358 -50 47 -139 99 -201 120 -14 4 -18 17 -18 56 0 131 -114 207 -222
149z"/>
</g>
</svg>
