<svg width="31" height="31" viewBox="0 0 31 31" fill="none" xmlns="http://www.w3.org/2000/svg">
<path d="M17.5742 15.844C17.6622 15.844 17.992 15.9949 18.5636 16.2967C19.1353 16.5985 19.4381 16.7802 19.4719 16.842C19.4854 16.8762 19.4922 16.9277 19.4922 16.9963C19.4922 17.2226 19.4347 17.4833 19.3197 17.7782C19.2114 18.0457 18.9713 18.2703 18.5992 18.4521C18.2271 18.6338 17.882 18.7247 17.5641 18.7247C17.1784 18.7247 16.5357 18.5121 15.6359 18.0868C14.9729 17.7782 14.3979 17.3735 13.9108 16.8728C13.4236 16.3721 12.923 15.7377 12.4088 14.9695C11.9217 14.2356 11.6816 13.5703 11.6883 12.9736V12.8913C11.7086 12.2671 11.9589 11.7252 12.4393 11.2657C12.6017 11.1148 12.7776 11.0394 12.967 11.0394C13.0076 11.0394 13.0685 11.0445 13.1497 11.0548C13.2308 11.0651 13.2951 11.0702 13.3425 11.0702C13.471 11.0702 13.5606 11.0925 13.6114 11.1371C13.6621 11.1817 13.7146 11.276 13.7687 11.42C13.8228 11.5572 13.9344 11.859 14.1036 12.3254C14.2727 12.7918 14.3573 13.049 14.3573 13.097C14.3573 13.2411 14.2406 13.4382 14.0072 13.6886C13.7738 13.9389 13.6571 14.0984 13.6571 14.167C13.6571 14.215 13.674 14.2665 13.7078 14.3213C13.9378 14.822 14.2829 15.2919 14.7429 15.7308C15.1218 16.0943 15.6325 16.4407 16.2753 16.7699C16.3564 16.8179 16.4309 16.842 16.4985 16.842C16.6 16.842 16.7827 16.6756 17.0465 16.343C17.3104 16.0103 17.4863 15.844 17.5742 15.844ZM15.5141 21.2968C16.3733 21.2968 17.197 21.1253 17.9852 20.7824C18.7734 20.4394 19.4516 19.9799 20.0199 19.4037C20.5882 18.8276 21.0415 18.14 21.3797 17.3409C21.718 16.5419 21.8871 15.7068 21.8871 14.8357C21.8871 13.9647 21.718 13.1296 21.3797 12.3305C21.0415 11.5315 20.5882 10.8439 20.0199 10.2677C19.4516 9.69159 18.7734 9.23205 17.9852 8.88911C17.197 8.54616 16.3733 8.37469 15.5141 8.37469C14.6549 8.37469 13.8313 8.54616 13.0431 8.88911C12.2549 9.23205 11.5767 9.69159 11.0084 10.2677C10.4401 10.8439 9.98684 11.5315 9.64857 12.3305C9.3103 13.1296 9.14117 13.9647 9.14117 14.8357C9.14117 16.2281 9.54709 17.4901 10.3589 18.6218L9.55724 21.019L12.0131 20.2268C13.082 20.9401 14.249 21.2968 15.5141 21.2968ZM15.5141 7.07837C16.5492 7.07837 17.5387 7.28413 18.4825 7.69567C19.4262 8.1072 20.2398 8.65934 20.9231 9.35208C21.6064 10.0448 22.151 10.8696 22.5569 11.8264C22.9628 12.7832 23.1658 13.7863 23.1658 14.8357C23.1658 15.8851 22.9628 16.8883 22.5569 17.8451C22.151 18.8019 21.6064 19.6266 20.9231 20.3194C20.2398 21.0121 19.4262 21.5643 18.4825 21.9758C17.5387 22.3873 16.5492 22.5931 15.5141 22.5931C14.1949 22.5931 12.9602 22.2707 11.8101 21.626L7.57837 23.0046L8.9585 18.8379C8.22784 17.617 7.86251 16.283 7.86251 14.8357C7.86251 13.7863 8.06548 12.7832 8.4714 11.8264C8.87732 10.8696 9.42193 10.0448 10.1052 9.35208C10.7885 8.65934 11.6021 8.1072 12.5458 7.69567C13.4896 7.28413 14.479 7.07837 15.5141 7.07837Z" fill="#C6D868"/>
<circle cx="15.5415" cy="15.0415" r="14.5991" stroke="#C6D868" stroke-width="0.884793"/>
</svg>
