<svg width="380" height="60" viewBox="0 0 380 60" fill="none" xmlns="http://www.w3.org/2000/svg">
<path d="M380 31L0 31" stroke="#C7DB5D" stroke-miterlimit="10"/>
<path d="M219.784 29.8929C219.784 35.8049 218.03 41.5841 214.746 46.4996C211.461 51.4152 206.793 55.2465 201.331 57.5088C195.869 59.7711 189.858 60.363 184.06 59.2096C178.262 58.0562 172.936 55.2092 168.755 51.0288C164.575 46.8484 161.728 41.5223 160.574 35.7239C159.421 29.9255 160.013 23.9153 162.275 18.4532C164.538 12.9912 168.369 8.32274 173.284 5.03809C178.2 1.75343 183.979 0.000197799 189.891 1.67302e-08C193.817 -0.000131313 197.704 0.772929 201.331 2.27515C204.958 3.77736 208.253 5.97928 211.029 8.75513C213.805 11.531 216.007 14.8264 217.509 18.4532C219.011 22.0801 219.784 25.9673 219.784 29.8929Z" fill="#F8F8F9"/>
<path d="M204.924 32.1221H200.481C200.33 34.6695 199.212 37.063 197.355 38.8134C195.498 40.5637 193.042 41.5385 190.49 41.5385C187.939 41.5385 185.483 40.5637 183.626 38.8134C181.769 37.063 180.651 34.6695 180.5 32.1221C180.488 31.5418 180.249 30.9895 179.834 30.5835C179.419 30.1775 178.862 29.9502 178.281 29.9502C177.701 29.9502 177.144 30.1775 176.729 30.5835C176.314 30.9895 176.075 31.5418 176.063 32.1221V32.145C176.063 32.16 176.063 32.1731 176.063 32.1891C176.232 35.9081 177.831 39.4181 180.526 41.9868C183.22 44.5556 186.803 45.9847 190.526 45.9761C194.248 45.9674 197.824 44.5217 200.507 41.9404C203.19 39.3592 204.772 35.8418 204.924 32.1221Z" fill="#231F20"/>
<path d="M202.232 34.294C203.889 34.294 205.51 33.8024 206.888 32.8815C208.266 31.9606 209.34 30.6517 209.975 29.1203C210.609 27.5888 210.775 25.9037 210.452 24.278C210.128 22.6522 209.33 21.1588 208.158 19.9867C206.986 18.8146 205.492 18.0164 203.867 17.693C202.241 17.3696 200.556 17.5356 199.024 18.17C197.493 18.8043 196.184 19.8785 195.263 21.2567C194.342 22.635 193.851 24.2554 193.851 25.913C193.851 28.1358 194.734 30.2675 196.305 31.8393C197.877 33.411 200.009 34.294 202.232 34.294Z" fill="#231F20"/>
<path d="M209.486 25.9139C209.486 27.3484 209.06 28.7506 208.263 29.9432C207.466 31.1359 206.333 32.0653 205.008 32.6141C203.683 33.1629 202.224 33.3065 200.817 33.0265C199.41 32.7465 198.118 32.0556 197.104 31.0413C196.09 30.0269 195.399 28.7344 195.119 27.3275C194.839 25.9206 194.983 24.4623 195.532 23.1371C196.081 21.8118 197.011 20.6791 198.204 19.8822C199.396 19.0853 200.799 18.6599 202.233 18.6599C203.186 18.6599 204.129 18.8476 205.009 19.2122C205.889 19.5767 206.688 20.1111 207.362 20.7847C208.036 21.4583 208.57 22.258 208.934 23.1381C209.299 24.0182 209.486 24.9614 209.486 25.9139Z" fill="#EBA243"/>
<path d="M208.747 25.9138C208.747 27.2024 208.365 28.4621 207.649 29.5336C206.934 30.6051 205.916 31.4403 204.726 31.9336C203.536 32.4269 202.226 32.5561 200.962 32.3049C199.698 32.0537 198.537 31.4333 197.626 30.5223C196.714 29.6113 196.094 28.4506 195.842 27.1869C195.591 25.9231 195.719 24.6131 196.212 23.4226C196.705 22.2321 197.54 21.2145 198.611 20.4984C199.683 19.7824 200.942 19.4001 202.231 19.3999C203.086 19.3998 203.934 19.5681 204.724 19.8954C205.515 20.2227 206.233 20.7025 206.838 21.3074C207.443 21.9123 207.923 22.6304 208.25 23.4208C208.578 24.2112 208.747 25.0583 208.747 25.9138Z" fill="#EEBB45"/>
<path d="M207.77 25.9141C207.77 27.0095 207.445 28.0802 206.836 28.991C206.227 29.9017 205.362 30.6114 204.35 31.0305C203.338 31.4496 202.224 31.5593 201.15 31.3456C200.076 31.1318 199.089 30.6043 198.314 29.8297C197.54 29.0551 197.012 28.0683 196.798 26.9939C196.585 25.9195 196.694 24.8059 197.113 23.7938C197.532 22.7817 198.242 21.9167 199.153 21.308C200.064 20.6993 201.134 20.3742 202.23 20.374C203.699 20.374 205.108 20.9578 206.147 21.9967C207.186 23.0357 207.77 24.4448 207.77 25.9141Z" fill="#ECAC44"/>
<path d="M202.722 30.4691C201.405 30.4678 200.14 29.9517 199.198 29.0309C198.256 28.1101 197.711 26.8576 197.679 25.5406C197.648 24.2237 198.132 22.9466 199.029 21.9819C199.927 21.0172 201.165 20.4414 202.481 20.3772C202.398 20.3772 202.315 20.3711 202.232 20.3711C201.136 20.3711 200.065 20.6961 199.154 21.3048C198.243 21.9136 197.533 22.7787 197.114 23.791C196.694 24.8033 196.585 25.9173 196.798 26.9919C197.012 28.0666 197.54 29.0537 198.315 29.8285C199.089 30.6033 200.076 31.131 201.151 31.3447C202.226 31.5585 203.34 31.4487 204.352 31.0294C205.364 30.6101 206.229 29.9001 206.838 28.989C207.447 28.078 207.772 27.0068 207.772 25.9111C207.772 25.8281 207.772 25.7441 207.766 25.6621C207.704 26.958 207.146 28.1804 206.207 29.0757C205.268 29.9709 204.02 30.4703 202.723 30.4701" fill="#E99442"/>
<path d="M207.071 22.1321C207.423 22.5177 207.715 22.9538 207.938 23.426C208.069 23.7211 208.178 24.0253 208.265 24.3361C208.317 24.6735 208.409 25.0035 208.539 25.3191C208.665 25.5341 208.858 25.6691 208.954 25.3971C209.013 25.0743 208.99 24.7418 208.888 24.4301C208.548 23.019 207.783 21.7462 206.697 20.7831C206.578 20.6831 206.185 20.3831 205.997 20.4121C205.371 20.5021 206.097 21.1121 206.291 21.3121C206.552 21.5841 206.818 21.8491 207.066 22.1301" fill="#F2D847"/>
<path d="M208.463 26.9101C208.563 27.1541 208.748 27.055 208.849 26.865C208.937 26.6814 208.972 26.4766 208.949 26.2741C208.909 26.0511 208.692 25.987 208.568 26.174C208.445 26.3986 208.409 26.6608 208.468 26.9101" fill="#F2D847"/>
<path d="M202.789 22.2211C202.807 22.6801 203.206 22.8682 203.552 23.0722C204.297 23.4178 204.878 24.0397 205.172 24.8062C205.347 25.2362 205.516 25.6792 206.086 25.5682C206.602 25.4682 206.672 25.0681 206.695 24.6051C206.702 24.0536 206.564 23.51 206.295 23.0285C206.026 22.547 205.635 22.1444 205.162 21.8611C204.718 21.5978 204.204 21.4771 203.689 21.5152C203.389 21.5502 202.773 21.8151 202.789 22.2211Z" fill="#F0C846"/>
<path d="M204.644 23.2311L204.391 23.2621C204.233 23.3006 204.092 23.3899 203.989 23.5164C203.887 23.6428 203.829 23.7995 203.825 23.962C203.814 24.045 203.805 24.1321 203.805 24.1321C203.805 24.1321 203.795 24.037 203.783 23.951C203.776 23.7907 203.717 23.6369 203.616 23.5128C203.514 23.3887 203.374 23.3011 203.219 23.2631L202.966 23.2321C202.934 23.2321 202.937 23.2321 202.937 23.2321C202.937 23.2321 202.937 23.2321 202.966 23.2321L203.219 23.202C203.365 23.1671 203.497 23.0877 203.596 22.9747C203.696 22.8617 203.758 22.7207 203.774 22.571C203.793 22.471 203.805 22.333 203.805 22.333C203.805 22.333 203.816 22.46 203.833 22.557C203.847 22.7092 203.908 22.8532 204.008 22.9688C204.108 23.0843 204.242 23.1655 204.391 23.201L204.644 23.2311Z" fill="white"/>
<path d="M205.368 24.5079L205.257 24.522C205.187 24.539 205.125 24.5784 205.08 24.634C205.035 24.6897 205.01 24.7584 205.008 24.83C205.008 24.866 204.999 24.9039 204.999 24.9039C204.999 24.9039 204.999 24.863 204.989 24.825C204.985 24.7548 204.959 24.6877 204.914 24.6337C204.869 24.5796 204.808 24.5415 204.74 24.525L204.629 24.511C204.614 24.511 204.616 24.511 204.616 24.511C204.616 24.511 204.616 24.511 204.629 24.511L204.74 24.4979C204.804 24.4826 204.863 24.4476 204.906 24.3978C204.95 24.348 204.978 24.2859 204.985 24.22C204.993 24.175 204.999 24.115 204.999 24.115C204.999 24.115 204.999 24.172 205.011 24.215C205.017 24.282 205.044 24.3454 205.088 24.3964C205.132 24.4473 205.191 24.4833 205.257 24.499L205.368 24.512" fill="white"/>
<path d="M170.074 30.4831L178.536 24.072L186.994 30.481C187.035 30.3138 187.064 30.1442 187.081 29.973C187.081 28.573 187.081 27.173 187.091 25.773C187.097 25.6365 187.067 25.5008 187.005 25.3794C186.942 25.258 186.849 25.1552 186.734 25.0811C184.616 23.4811 182.511 21.873 180.388 20.281C179.862 19.8483 179.201 19.6131 178.52 19.616C177.838 19.6189 177.179 19.8598 176.657 20.297C174.551 21.877 172.457 23.477 170.357 25.064C170.247 25.1294 170.157 25.2223 170.094 25.3335C170.032 25.4447 169.999 25.5704 170 25.698C170.012 27.153 170.006 28.607 170.008 30.062C170.022 30.2015 170.044 30.3401 170.073 30.4771" fill="#231F20"/>
</svg>
