<svg width="155" height="150" viewBox="0 0 155 150" fill="none" xmlns="http://www.w3.org/2000/svg">
<path d="M38.68 149.84H9.67001C7.10743 149.833 4.65172 148.812 2.8397 147C1.02768 145.188 0.00671715 142.733 0 140.17V111.16H9.67001V140.17H38.68V149.84ZM145.322 149.84H116.295V140.162H145.322V111.135H155V140.162C154.993 142.726 153.971 145.184 152.158 146.998C150.344 148.811 147.886 149.833 145.322 149.84Z" fill="white"/>
<path d="M116.328 0.684326H145.33C147.892 0.688804 150.348 1.70788 152.16 3.51856C153.972 5.32923 154.993 7.78406 155 10.3459V39.3559H145.33V10.3459H116.328V0.684326ZM9.67849 0.684326H38.7139V10.3543H9.67849V39.3898H0V10.3543C0.00895407 7.79097 1.0318 5.33529 2.84517 3.5235C4.65854 1.71172 7.11513 0.691033 9.67849 0.684326Z" fill="white"/>
<path d="M38.5782 106.884H84.0272V82.4719C84.0361 80.9224 84.6556 79.4389 85.7513 78.3432C86.847 77.2475 88.3306 76.628 89.8801 76.6191H90.389C85.0417 74.1419 79.1749 72.9942 73.2883 73.2736C67.4017 73.553 61.6699 75.2514 56.5813 78.2239C51.4927 81.1964 47.1981 85.355 44.0634 90.3454C40.9287 95.3357 39.0468 101.01 38.5782 106.884ZM75.0528 21.9326C70.615 21.9276 66.2753 23.2388 62.5828 25.7003C58.8902 28.1618 56.0105 31.663 54.308 35.7613C52.6055 39.8595 52.1565 44.3706 53.018 48.724C53.8794 53.0773 56.0126 57.0775 59.1476 60.2184C62.2826 63.3594 66.2787 65.5001 70.6305 66.3698C74.9822 67.2395 79.4942 66.7991 83.5956 65.1043C87.697 63.4095 91.2038 60.5365 93.6722 56.8485C96.1407 53.1606 97.4601 48.8235 97.4634 44.3857C97.4668 41.4383 96.8891 38.5192 95.7635 35.7952C94.6379 33.0712 92.9865 30.5958 90.9035 28.5105C88.8206 26.4252 86.3471 24.771 83.6244 23.6423C80.9017 22.5136 77.9832 21.9326 75.0358 21.9326H75.0528Z" fill="white"/>
<path d="M119.17 109.158C118.827 109.156 118.487 109.222 118.17 109.352C117.852 109.481 117.564 109.673 117.321 109.915C117.078 110.157 116.885 110.445 116.754 110.762C116.623 111.079 116.556 111.419 116.557 111.762V122.323L129.731 109.158H119.17Z" fill="white"/>
<path d="M125.014 76.6194H89.8801C88.3306 76.6283 86.847 77.2478 85.7513 78.3435C84.6556 79.4392 84.0361 80.9227 84.0272 82.4723V117.615C84.0361 119.165 84.6556 120.648 85.7513 121.744C86.847 122.84 88.3306 123.459 89.8801 123.468H112.656V111.109C112.651 110.338 112.8 109.574 113.093 108.861C113.385 108.148 113.817 107.5 114.362 106.954C114.907 106.409 115.555 105.978 116.269 105.685C116.982 105.392 117.746 105.243 118.517 105.248H130.876V82.4723C130.867 80.9213 130.246 79.4365 129.149 78.3405C128.051 77.2446 126.565 76.6261 125.014 76.6194ZM113.309 100.048H96.3947C96.1271 100.066 95.8587 100.028 95.6062 99.9378C95.3537 99.8475 95.1224 99.7064 94.9266 99.5231C94.7308 99.3398 94.5748 99.1183 94.4681 98.8723C94.3614 98.6262 94.3064 98.3609 94.3064 98.0927C94.3064 97.8246 94.3614 97.5592 94.4681 97.3132C94.5748 97.0672 94.7308 96.8457 94.9266 96.6624C95.1224 96.4791 95.3537 96.3379 95.6062 96.2477C95.8587 96.1574 96.1271 96.1199 96.3947 96.1375H113.309C113.805 96.1702 114.27 96.3905 114.61 96.7535C114.95 97.1166 115.139 97.5954 115.139 98.0927C115.139 98.5901 114.95 99.0689 114.61 99.4319C114.27 99.795 113.805 100.015 113.309 100.048ZM118.517 90.9293H96.3947C95.8772 90.9293 95.381 90.7238 95.0151 90.3579C94.6492 89.992 94.4437 89.4958 94.4437 88.9783C94.4437 88.4609 94.6492 87.9647 95.0151 87.5988C95.381 87.2329 95.8772 87.0274 96.3947 87.0274H118.517C119.034 87.0274 119.531 87.2329 119.896 87.5988C120.262 87.9647 120.468 88.4609 120.468 88.9783C120.468 89.4958 120.262 89.992 119.896 90.3579C119.531 90.7238 119.034 90.9293 118.517 90.9293Z" fill="white"/>
</svg>
