<svg width="183" height="176" viewBox="0 0 183 176" fill="none" xmlns="http://www.w3.org/2000/svg">
<path d="M45.6 175.84H11.4C8.37897 175.832 5.48393 174.628 3.34773 172.492C1.21153 170.356 0.00791887 167.461 0 164.44V130.24H11.4V164.44H45.6V175.84ZM171.32 175.84H137.1V164.43H171.32V130.21H182.73V164.43C182.722 167.454 181.517 170.351 179.379 172.489C177.241 174.627 174.344 175.832 171.32 175.84Z" fill="#A4A2A2"/>
<path d="M137.14 0H171.33C174.35 0.00527877 177.245 1.20667 179.382 3.34128C181.518 5.47589 182.722 8.36989 182.73 11.39V45.59H171.33V11.39H137.14V0ZM11.41 0H45.64V11.4H11.41V45.63H0V11.4C0.010556 8.37805 1.21639 5.48303 3.35418 3.34711C5.49197 1.2112 8.38804 0.00790631 11.41 0Z" fill="#A4A2A2"/>
<path d="M45.48 125.2H99.06V96.42C99.0705 94.5932 99.8008 92.8443 101.093 91.5526C102.384 90.2608 104.133 89.5305 105.96 89.52H106.56C100.256 86.5997 93.3395 85.2466 86.3998 85.576C79.4601 85.9055 72.7029 87.9077 66.7039 91.412C60.7049 94.9163 55.642 99.8189 51.9465 105.702C48.251 111.585 46.0325 118.274 45.48 125.2ZM88.48 25.05C83.2482 25.0441 78.1322 26.5898 73.7791 29.4917C69.4259 32.3935 66.031 36.5212 64.0239 41.3526C62.0168 46.184 61.4875 51.5022 62.5031 56.6344C63.5187 61.7666 66.0334 66.4824 69.7293 70.1853C73.4252 73.8882 78.1363 76.4118 83.2665 77.4371C88.3968 78.4624 93.716 77.9432 98.5512 75.9452C103.386 73.9472 107.52 70.5602 110.431 66.2125C113.341 61.8648 114.896 56.7517 114.9 51.52C114.904 48.0453 114.223 44.604 112.896 41.3926C111.569 38.1813 109.622 35.2631 107.166 32.8047C104.711 30.3463 101.795 28.3961 98.5851 27.0655C95.3753 25.7349 91.9347 25.05 88.46 25.05H88.48Z" fill="#A4A2A2"/>
<path d="M140.49 127.88C140.086 127.877 139.685 127.955 139.31 128.108C138.936 128.261 138.596 128.487 138.31 128.773C138.023 129.058 137.796 129.398 137.642 129.771C137.487 130.145 137.409 130.546 137.41 130.95V143.4L152.94 127.88H140.49Z" fill="#A4A2A2"/>
<path d="M147.38 89.52H105.96C104.133 89.5305 102.384 90.2608 101.092 91.5526C99.8008 92.8443 99.0704 94.5933 99.0599 96.42V137.85C99.0704 139.677 99.8008 141.426 101.092 142.717C102.384 144.009 104.133 144.74 105.96 144.75H132.81V130.18C132.805 129.271 132.98 128.37 133.325 127.529C133.67 126.689 134.179 125.925 134.822 125.282C135.465 124.639 136.229 124.131 137.069 123.785C137.91 123.44 138.811 123.265 139.72 123.27H154.29V96.42C154.279 94.5915 153.548 92.8411 152.254 91.5491C150.96 90.2571 149.208 89.5279 147.38 89.52ZM133.58 117.14H113.64C113.324 117.161 113.008 117.117 112.71 117.01C112.413 116.904 112.14 116.737 111.909 116.521C111.678 116.305 111.494 116.044 111.369 115.754C111.243 115.464 111.178 115.151 111.178 114.835C111.178 114.519 111.243 114.206 111.369 113.916C111.494 113.626 111.678 113.365 111.909 113.149C112.14 112.933 112.413 112.766 112.71 112.66C113.008 112.553 113.324 112.509 113.64 112.53H133.58C134.165 112.569 134.714 112.828 135.114 113.256C135.515 113.684 135.738 114.249 135.738 114.835C135.738 115.421 135.515 115.986 135.114 116.414C134.714 116.842 134.165 117.101 133.58 117.14ZM139.72 106.39H113.64C113.03 106.39 112.445 106.148 112.014 105.716C111.582 105.285 111.34 104.7 111.34 104.09C111.34 103.48 111.582 102.895 112.014 102.464C112.445 102.032 113.03 101.79 113.64 101.79H139.72C140.33 101.79 140.915 102.032 141.346 102.464C141.778 102.895 142.02 103.48 142.02 104.09C142.02 104.7 141.778 105.285 141.346 105.716C140.915 106.148 140.33 106.39 139.72 106.39Z" fill="#A4A2A2"/>
</svg>
